<?xml version="1.0" encoding="UTF-8"?>
<svg id="Layer_2" xmlns="http://www.w3.org/2000/svg" viewBox="0 0 743.25 743.25">
  <defs>
    <style>
      .cls-1 {
        fill: #fff;
      }

      .cls-2 {
        fill: #f47320;
      }
    </style>
  </defs>
  <g id="Layer_1-2" data-name="Layer_1">
    <g>
      <path class="cls-2" d="M526.44,743.25H216.81C86.23,743.25,0,663.41,0,526.44V216.81C0,79.84,86.23,0,216.81,0h309.64c130.58,0,216.81,79.84,216.81,216.81v309.64c0,136.97-86.23,216.81-216.81,216.81Z"/>
      <g>
        <path class="cls-1" d="M270.49,506.22c20.61-6.51,41.8-11.86,61.94-19.56,19.94-7.9,38.95-18.07,56.49-30.36,26.29-18.36,48.79-41.44,67.08-67.63,0,0,19.06-26.4,19.06-26.4,0,0,5.66,12.07,5.66,12.07-22.68-.74-75.67-2.44-97.81-3.15,35.76-16.54,73.97-34.31,109.63-50.64,6.74-3,12.97-6.99,18.38-11.99,4.03-3.64,7.48-7.9,10.65-12.3,31.13-42.08,66.69-89.85,98.17-131.72,0,0,11.46,17.18,11.46,17.18-7.73,1.92-23.65,6.15-30.99,8.03-5.87,1.7-14.3,3.84-19.96,5.78-6.07,1.86-13.85,4.54-19.64,6.77-2.89,1.07-6.94,2.52-9.7,3.73-32.02,13.01-62.71,30.07-90.32,50.88-22.21,16.47-42.89,35.6-61.14,56.35-5.45,5.94-11.59,13.76-16.66,20.04-68.15,88.2-138.22,177.44-208.48,264.09-9.03,11.02-17.99,22.1-27.09,33.07,8.03-11.78,16.2-23.45,24.3-35.17,63.92-91.48,130.27-183.45,196.25-273.31,9.76-12.99,20.37-25.96,31.5-37.76,19.92-21.17,42.42-40.45,66.38-56.9,2.59-1.92,6.44-4.27,9.14-6.04,5.39-3.62,13.03-8.16,18.7-11.43,0,0,4.74-2.76,4.74-2.76l4.84-2.57c5.48-2.96,13.9-7.35,19.57-9.89,7.37-3.65,15.04-6.66,22.59-9.91,5.82-2.13,12.13-4.67,17.99-6.69,2.6-.8,12.9-4.27,15.64-5.11,14.15-4.16,32.55-8.72,46.9-12.39,0,0,30.28-7.73,30.28-7.73-26.51,35.15-58.32,77.11-85.03,112.15-7.5,9.82-26.07,34.05-33.28,43.48-4.01,5.4-8.42,10.55-13.51,14.97-7.6,6.77-16.49,11.92-25.88,15.74-25.1,10.89-50.32,21.7-75.45,32.48,0,0-3.08-16.42-3.08-16.42,10.63.71,66.75,4.41,76.05,5.03-5.73,7.31-22.88,29.12-28.85,36.73-13.42,17.5-28.87,33.87-46.07,47.69-17.06,13.84-36.19,25.64-56.1,34.89-10.02,4.53-20.27,8.47-30.73,11.82-20.92,6.47-42.3,10.18-63.6,14.86h0Z"/>
        <path class="cls-1" d="M234.06,332.59c0-69.82-23.27-93.09-93.09-93.09,69.82,0,93.09-23.27,93.09-93.09,0,69.82,23.27,93.09,93.09,93.09-69.82,0-93.09,23.27-93.09,93.09Z"/>
      </g>
    </g>
  </g>
</svg>
